<?xml version="1.0" encoding="UTF-8"?> <svg xmlns="http://www.w3.org/2000/svg" width="160" height="160" viewBox="0 0 160 160" fill="none"> <rect x="0.5" y="0.5" width="159" height="159" rx="79.5" stroke="#000AFF"></rect> <g clip-path="url(#clip0)"> <path d="M103.091 63.2485L72.4688 56.7679C71.1732 56.4938 69.8891 57.3297 69.615 58.6253L69.0332 62.364L104.367 69.8411L104.948 66.1023C105.222 64.8072 104.387 63.5227 103.091 63.2485Z" fill="#6E75FD"></path> <path d="M90.2134 70.6341C89.8557 69.3461 88.5096 68.5847 87.222 68.9418L81.4087 70.5556L67.7042 67.6553L66.197 74.7766L56.7799 77.3904C55.4923 77.7476 54.731 79.0937 55.0881 80.3813L60.3952 99.5055C60.7528 100.793 62.099 101.555 63.3866 101.197L93.8286 92.7493C95.1162 92.3916 95.8776 91.046 95.5205 89.7579L94.6095 86.4749L98.0237 87.1967C99.3193 87.4713 100.603 86.6354 100.877 85.3398L103.038 75.1324L90.7396 72.5301L90.2134 70.6341ZM93.729 80.3538L94.4819 76.7956C94.595 76.2628 95.1232 75.9192 95.6559 76.0317L99.2141 76.7851C99.7474 76.8981 100.091 77.4258 99.9785 77.9591L99.2256 81.5173C99.1126 82.0501 98.5844 82.3942 98.0516 82.2812L94.4934 81.5283C93.9597 81.4148 93.616 80.8866 93.729 80.3538ZM57.3097 79.2988L65.7342 76.9617L85.6117 71.4456L87.7506 70.8513C87.7897 70.8408 87.8287 70.8358 87.8667 70.8358C88.0383 70.8358 88.2435 70.9484 88.3034 71.164L88.5546 72.0684L89.3414 74.9037L58.035 83.5913L56.997 79.8521C56.932 79.6174 57.0751 79.3639 57.3097 79.2988ZM93.6115 90.2871C93.6515 90.4321 93.6095 90.5522 93.5669 90.6272C93.5249 90.7022 93.4439 90.8004 93.2988 90.8403L62.8573 99.2883C62.8189 99.2989 62.7793 99.3044 62.7413 99.3044C62.5697 99.3044 62.3645 99.1913 62.3046 98.9757L59.2091 87.8209L90.5155 79.1327L92.4249 86.0125L93.6115 90.2871Z" fill="#000AFF"></path> <path d="M67.7775 91.0509C67.6315 90.5257 67.0832 90.2155 66.5579 90.3611L63.0027 91.3481C62.478 91.4937 62.1674 92.0424 62.3134 92.5677L63.2999 96.1224C63.446 96.6476 63.9943 96.9578 64.5195 96.8117L68.0747 95.8252C68.5999 95.6797 68.9101 95.1309 68.7645 94.6056L67.7775 91.0509Z" fill="#6E75FD"></path> </g> <defs> <clipPath id="clip0"> <rect width="50" height="50" fill="white" transform="translate(55 54)"></rect> </clipPath> </defs> </svg> 