<?xml version="1.0" encoding="UTF-8"?> <svg xmlns="http://www.w3.org/2000/svg" width="160" height="160" viewBox="0 0 160 160" fill="none"> <rect x="0.5" y="0.5" width="159" height="159" rx="79.5" stroke="#000AFF"></rect> <path d="M70.6576 74.3925L70.6119 74.4191V91.7826L67.2591 87.9739L64.1855 89.2435V70.6562L70.6576 74.3925Z" fill="white"></path> <path d="M104.891 64.8411V94.1597L79.5 108.819V79.4978L104.888 64.8398L104.891 64.8411Z" fill="#000AFF"></path> <path d="M79.4992 79.4972L70.6582 74.3924L96.0463 59.7344H96.0476L104.887 64.8392L79.4992 79.4972Z" fill="#000AFF" fill-opacity="0.55"></path> <path d="M96.0457 59.7353L70.6576 74.3933L64.1855 70.657L89.5736 55.999L96.0457 59.7353Z" fill="#F5F7FA"></path> <path d="M89.5764 55.9986L64.1883 70.6566L54.1133 64.8396L79.5014 50.1816L89.5764 55.9986Z" fill="#000AFF"></path> <path d="M79.5 79.4978V108.819L54.1094 94.1597V64.8411L54.1119 64.8398L64.1869 70.6568V89.244L67.2604 87.9745L70.6133 91.7831V74.4197L70.659 74.3931L79.5 79.4978Z" fill="#6E75FD"></path> </svg> 