<?xml version="1.0" encoding="UTF-8"?> <svg xmlns="http://www.w3.org/2000/svg" width="119" height="210" viewBox="0 0 119 210" fill="none"> <path d="M31.972 150.31V136.453C31.972 128.755 33.6149 121.731 36.9007 115.38C40.1865 109.029 44.1489 103.737 48.7877 99.503C53.4265 95.2691 58.0653 91.2277 62.7042 87.3787C67.343 83.3372 71.3053 78.9109 74.5911 74.0997C77.877 69.096 79.5199 63.8036 79.5199 58.2226C79.5199 51.4869 76.8139 45.8096 71.4019 41.1908C65.99 36.572 59.3217 34.2626 51.397 34.2626C40.7664 34.2626 30.5223 38.3041 20.6648 46.387L0.0800781 21.2723C14.7697 7.41597 32.9384 0.487793 54.5862 0.487793C71.7885 0.487793 86.6714 5.49147 99.2349 15.4988C111.798 25.3138 118.08 38.4003 118.08 54.7585C118.08 63.6112 116.341 71.5978 112.861 78.7185C109.382 85.8391 105.13 91.7088 100.105 96.3276C95.0792 100.946 90.0539 105.373 85.0285 109.607C80.1964 113.648 76.0408 118.171 72.5616 123.174C69.0825 128.178 67.343 133.47 67.343 139.051V150.31H31.972ZM31.682 209.488V175.136H67.343V209.488H31.682Z" fill="#000AFF"></path> </svg> 