<?xml version="1.0" encoding="UTF-8"?> <svg xmlns="http://www.w3.org/2000/svg" width="100" height="100" viewBox="0 0 100 100" fill="none"> <path d="M78.7085 46.4944L81.779 42.8526C81.9463 42.6541 82.0238 42.3949 81.9931 42.1372L80.5667 30.1841C80.5233 29.8204 80.2721 29.5153 79.9235 29.4028C79.575 29.2907 79.1928 29.3913 78.9451 29.6611L72.4863 36.6966L60.6828 37.8987C60.1677 37.9511 59.7927 38.4113 59.8451 38.9263C59.8976 39.4414 60.3586 39.8169 60.8727 39.7641L73.0308 38.5258C73.2593 38.5026 73.4712 38.3963 73.6265 38.2272L78.9465 32.4321L80.0828 41.9552L77.3588 45.1861L71.8468 48.9042C71.5698 49.0912 71.4131 49.4114 71.4357 49.7449L71.8641 56.0578C71.8952 56.5159 72.2535 56.8841 72.7106 56.9276L76.636 57.3013L78.6478 62.4232L77.7286 64.7917L75.0492 61.2162C74.8408 60.9382 74.4962 60.7982 74.1527 60.8523L70.0828 61.4951C69.7473 61.5481 69.4668 61.7783 69.3493 62.0969L68.0306 65.6766L60.4193 67.2194C59.9118 67.3223 59.584 67.8171 59.6868 68.3246C59.777 68.7692 60.168 69.0759 60.6047 69.0759C60.6665 69.0759 60.7291 69.0698 60.792 69.0571L68.9158 67.4102C69.2345 67.3456 69.4968 67.1206 69.6092 66.8154L70.9187 63.2612L73.8875 62.7923L77.2412 67.2677C77.4455 67.5402 77.7812 67.6808 78.119 67.6343C78.4565 67.5879 78.7422 67.3623 78.8655 67.0448L80.5283 62.7603C80.6136 62.5408 80.6131 62.2974 80.527 62.0783L78.1707 56.0798C78.0416 55.7511 77.7386 55.5228 77.387 55.4893L73.6811 55.1364L73.3431 50.1566L78.5157 46.6674C78.588 46.6189 78.6527 46.5607 78.7085 46.4944Z" fill="#000AFF"></path> <path d="M56.3069 68.0534L53.1996 68.6833L45.7977 60.9175C45.5646 60.6729 45.2179 60.5725 44.8899 60.6553L39.5193 62.0086L37.1114 59.0451C36.9529 58.8501 36.7229 58.7269 36.4727 58.703L27.4757 57.8461C27.2133 57.821 26.9516 57.908 26.7562 58.0858C26.5608 58.2634 26.4493 58.5153 26.4493 58.7794V60.7536L22.8902 64.3926L21.7237 59.276L23.2344 55.3071C23.3256 55.0676 23.3148 54.8013 23.2044 54.57C23.0942 54.3386 22.8939 54.1626 22.6504 54.0829L20.0548 53.2316L23.2083 40.3464L29.1611 36.7046L34.2119 39.054C34.6814 39.2725 35.2389 39.0689 35.4573 38.5994C35.6757 38.1299 35.4722 37.5724 35.0027 37.354L29.4961 34.7926C29.2114 34.6603 28.8792 34.6791 28.6114 34.8429L21.9003 38.9486C21.6893 39.0778 21.5378 39.2851 21.4789 39.5254L18.0271 53.6291C17.9106 54.105 18.1802 54.5903 18.6456 54.7429L21.1324 55.5584L19.8702 58.8743C19.8043 59.0471 19.7912 59.2358 19.8323 59.4161L21.4441 66.4856C21.5203 66.8201 21.7733 67.0864 22.1034 67.1795C22.4336 67.2725 22.7883 67.178 23.0283 66.9328L28.0571 61.7914C28.2284 61.6163 28.3243 61.3809 28.3243 61.1359V59.8104L35.9039 60.5324L38.4411 63.655C38.6709 63.938 39.0443 64.062 39.3977 63.9729L44.8177 62.6071L52.1996 70.3519C52.3783 70.5394 52.6244 70.6425 52.8782 70.6425C52.9401 70.6425 53.0024 70.6364 53.0644 70.6239L56.6793 69.8911C57.1868 69.7883 57.5147 69.2935 57.4118 68.786C57.3092 68.2785 56.8149 67.9501 56.3069 68.0534Z" fill="#000AFF"></path> <path d="M57.1628 35.3062C52.561 35.3062 50.3243 34.7694 47.9563 34.2011C45.745 33.6703 43.4634 33.1228 39.2495 33.0519V31.9817C39.2495 31.4639 38.8298 31.0442 38.312 31.0442C37.7943 31.0442 37.3745 31.4639 37.3745 31.9817V53.6772C37.3745 54.1949 37.7943 54.6147 38.312 54.6147C38.8298 54.6147 39.2495 54.1949 39.2495 53.6772V48.9984C43.2294 49.0663 45.3173 49.5674 47.5186 50.0958C49.8885 50.6646 52.3391 51.2527 57.1628 51.2527C57.6805 51.2527 58.1003 50.8329 58.1003 50.3152V36.2437C58.1003 35.7258 57.6805 35.3062 57.1628 35.3062ZM47.5186 36.0242C49.7299 36.5549 52.0115 37.1024 56.2253 37.1733V40.0288C52.2455 39.9609 50.1576 39.4598 47.9563 38.9314C45.745 38.4007 43.4634 37.8532 39.2495 37.7823V34.9268C43.2294 34.9948 45.3173 35.4958 47.5186 36.0242ZM47.9563 48.2726C45.745 47.7418 43.4634 47.1943 39.2495 47.1234V44.2799C43.2293 44.3478 45.3171 44.8489 47.5185 45.3772C47.8278 45.4514 48.1369 45.5256 48.4514 45.5986C48.5226 45.6151 48.5939 45.6229 48.664 45.6229C49.0904 45.6229 49.476 45.3302 49.5765 44.8971C49.6935 44.3927 49.3795 43.8889 48.8751 43.7719C48.5654 43.7001 48.2608 43.6269 47.9561 43.5538C45.7449 43.0232 43.4634 42.4757 39.2496 42.4047V39.6573C43.2295 39.7252 45.3174 40.2263 47.5188 40.7547C49.73 41.2854 52.0116 41.8329 56.2254 41.9038V44.6511C55.0331 44.6304 53.9496 44.5694 52.935 44.4663C52.4189 44.4138 51.9599 44.7891 51.9074 45.3041C51.855 45.8192 52.2301 46.2792 52.7451 46.3317C53.8216 46.4412 54.9674 46.5054 56.2254 46.5264V49.3698C52.2453 49.3019 50.1576 48.8008 47.9563 48.2726Z" fill="#000AFF"></path> </svg> 