<?xml version="1.0" encoding="UTF-8"?> <svg xmlns="http://www.w3.org/2000/svg" width="100" height="100" viewBox="0 0 100 100" fill="none"> <path d="M31.5859 31.5971V73.1762C31.5859 73.6178 31.944 73.9758 32.3856 73.9758H62.7704C63.2117 73.9758 63.5698 73.6178 63.5698 73.1762V39.5933C63.5698 39.5755 63.5612 39.5604 63.5595 39.5429C63.5556 39.4727 63.5418 39.4036 63.5187 39.3374C63.5098 39.3117 63.5035 39.287 63.4924 39.262C63.4535 39.175 63.3995 39.0956 63.3323 39.0278L55.3364 31.0319C55.2686 30.9644 55.1889 30.9104 55.1012 30.8718C55.0772 30.8616 55.0528 30.8531 55.0278 30.8455C54.9609 30.8224 54.8914 30.8086 54.8206 30.804C54.8071 30.8063 54.7913 30.7977 54.7745 30.7977H32.3856C31.944 30.7977 31.5859 31.1554 31.5859 31.5971ZM60.84 38.7936H55.5739V33.5275L60.84 38.7936ZM33.185 32.3968H53.9748V39.5933C53.9748 40.0346 54.3329 40.3926 54.7742 40.3926H61.9707V72.3768H33.185V32.3968Z" fill="#000AFF"></path> <path d="M65.1695 67.5791V69.1781H67.5682C68.0099 69.1781 68.3679 68.8204 68.3679 68.3787V26.7997C68.3679 26.358 68.0099 26 67.5682 26H37.1835C36.7418 26 36.3838 26.358 36.3838 26.7997V29.1984H37.9832V27.599H66.7686V67.5791H65.1695Z" fill="#000AFF"></path> <path d="M37.9829 41.9921H57.1731V43.5911H37.9829V41.9921Z" fill="#000AFF"></path> <path d="M37.9829 37.1942H44.3797V38.7936H37.9829V37.1942Z" fill="#000AFF"></path> <path d="M37.9829 46.7896H50.7766V48.3889H37.9829V46.7896Z" fill="#000AFF"></path> <path d="M52.3755 46.7896H57.1729V48.3889H52.3755V46.7896Z" fill="#000AFF"></path> <path d="M37.9829 51.587H57.1731V53.1864H37.9829V51.587Z" fill="#000AFF"></path> <path d="M37.9829 61.1823H57.1731V62.7816H37.9829V61.1823Z" fill="#000AFF"></path> <path d="M45.1792 56.3848H57.1732V57.9838H45.1792V56.3848Z" fill="#000AFF"></path> <path d="M37.9829 56.3848H43.5801V57.9838H37.9829V56.3848Z" fill="#000AFF"></path> <path d="M37.9829 65.9801H41.1813V67.5791H37.9829V65.9801Z" fill="#000AFF"></path> <path d="M42.7803 65.9801H57.173V67.5791H42.7803V65.9801Z" fill="#000AFF"></path> </svg> 