<?xml version="1.0" encoding="UTF-8"?> <svg xmlns="http://www.w3.org/2000/svg" width="100" height="100" viewBox="0 0 100 100" fill="none"> <path fill-rule="evenodd" clip-rule="evenodd" d="M33.1995 43.6005H32.3996C31.9577 43.6005 31.5996 43.9586 31.5996 44.4004C31.5996 44.8423 31.9577 45.2004 32.3996 45.2004H33.1995C33.6414 45.2004 33.9995 44.8423 33.9995 44.4004C33.9995 43.9586 33.6414 43.6005 33.1995 43.6005Z" fill="#000AFF"></path> <path fill-rule="evenodd" clip-rule="evenodd" d="M49.9988 43.6005H36.3996C35.9577 43.6005 35.5996 43.9586 35.5996 44.4004C35.5996 44.8423 35.9577 45.2004 36.3996 45.2004H49.9988C50.4406 45.2004 50.7988 44.8423 50.7988 44.4004C50.7988 43.9586 50.4406 43.6005 49.9988 43.6005Z" fill="#000AFF"></path> <path fill-rule="evenodd" clip-rule="evenodd" d="M33.1995 34.8009H32.3996C31.9577 34.8009 31.5996 35.159 31.5996 35.6009C31.5996 36.0427 31.9577 36.4008 32.3996 36.4008H33.1995C33.6414 36.4008 33.9995 36.0427 33.9995 35.6009C33.9995 35.159 33.6414 34.8009 33.1995 34.8009Z" fill="#000AFF"></path> <path fill-rule="evenodd" clip-rule="evenodd" d="M49.9988 34.8009H36.3996C35.9577 34.8009 35.5996 35.159 35.5996 35.6009C35.5996 36.0427 35.9577 36.4008 36.3996 36.4008H49.9988C50.4406 36.4008 50.7988 36.0427 50.7988 35.6009C50.7988 35.159 50.4406 34.8009 49.9988 34.8009Z" fill="#000AFF"></path> <path fill-rule="evenodd" clip-rule="evenodd" d="M54.2326 45.7659C54.545 46.0782 55.0514 46.0782 55.3638 45.7659L58.5637 42.566C58.8668 42.2521 58.8625 41.7532 58.5539 41.4446C58.2454 41.1361 57.7464 41.1317 57.4325 41.4348L54.7982 44.0691L53.7639 43.0348C53.45 42.7316 52.9511 42.7359 52.6425 43.0445C52.3339 43.3531 52.3296 43.8521 52.6327 44.1659L54.2326 45.7659Z" fill="#000AFF"></path> <path fill-rule="evenodd" clip-rule="evenodd" d="M33.1995 52.3999H32.3996C31.9577 52.3999 31.5996 52.758 31.5996 53.1999C31.5996 53.6417 31.9577 53.9998 32.3996 53.9998H33.1995C33.6414 53.9998 33.9995 53.6417 33.9995 53.1999C33.9995 52.758 33.6414 52.3999 33.1995 52.3999Z" fill="#000AFF"></path> <path fill-rule="evenodd" clip-rule="evenodd" d="M49.9988 52.3999H36.3996C35.9577 52.3999 35.5996 52.758 35.5996 53.1999C35.5996 53.6417 35.9577 53.9998 36.3996 53.9998H49.9988C50.4406 53.9998 50.7988 53.6417 50.7988 53.1999C50.7988 52.758 50.4406 52.3999 49.9988 52.3999Z" fill="#000AFF"></path> <path fill-rule="evenodd" clip-rule="evenodd" d="M33.1995 61.1995H32.3996C31.9577 61.1995 31.5996 61.5576 31.5996 61.9994C31.5996 62.4413 31.9577 62.7994 32.3996 62.7994H33.1995C33.6414 62.7994 33.9995 62.4413 33.9995 61.9994C33.9995 61.5576 33.6414 61.1995 33.1995 61.1995Z" fill="#000AFF"></path> <path fill-rule="evenodd" clip-rule="evenodd" d="M48.3989 61.1995H36.3996C35.9577 61.1995 35.5996 61.5576 35.5996 61.9994C35.5996 62.4413 35.9577 62.7994 36.3996 62.7994H48.3989C48.8408 62.7994 49.1989 62.4413 49.1989 61.9994C49.1988 61.5576 48.8407 61.1995 48.3989 61.1995Z" fill="#000AFF"></path> <path d="M64.3979 51.7279V37.0647C64.3996 36.4259 64.1451 35.8131 63.6916 35.3632L55.0384 26.7077C54.588 26.2535 53.9742 25.9991 53.3345 26.0014H28.3999C27.0745 26.0014 26 27.0758 26 28.4012V71.5988C26 72.9242 27.0745 73.9987 28.3999 73.9987H61.998C62.1049 73.9976 62.2118 73.9909 62.318 73.9787V73.9739C62.478 73.9811 62.6379 73.9987 62.798 73.9987C68.6717 74.0036 73.5499 69.4671 73.9708 63.6085C74.3917 57.7498 70.212 52.5626 64.3979 51.7279ZM61.6668 35.6008H55.5983C55.1565 35.6008 54.7984 35.2426 54.7984 34.8008V28.7324L61.6668 35.6008ZM28.3999 72.3988C27.9581 72.3988 27.5999 72.0406 27.5999 71.5988V28.4012C27.5999 27.9593 27.9581 27.6012 28.3999 27.6012H53.1985V34.8008C53.1985 36.1262 54.273 37.2007 55.5984 37.2007H62.798V51.5999C57.761 51.595 53.3417 54.9566 52.002 59.8121C50.6623 64.6677 52.7323 69.8199 57.0591 72.3987H28.3999V72.3988ZM62.798 72.3988C57.4963 72.3988 53.1985 68.101 53.1985 62.7993C53.1985 57.4976 57.4963 53.1998 62.798 53.1998C68.0997 53.1998 72.3975 57.4976 72.3975 62.7993C72.3917 68.0986 68.0972 72.393 62.798 72.3988Z" fill="#000AFF"></path> <path fill-rule="evenodd" clip-rule="evenodd" d="M58.7982 61.9993H57.9982C57.5564 61.9993 57.1982 62.3574 57.1982 62.7992C57.1982 63.2411 57.5564 63.5992 57.9982 63.5992H58.7982C59.24 63.5992 59.5981 63.2411 59.5981 62.7992C59.5981 62.3575 59.24 61.9993 58.7982 61.9993Z" fill="#000AFF"></path> <path fill-rule="evenodd" clip-rule="evenodd" d="M58.7982 57.1996H57.9982C57.5564 57.1996 57.1982 57.5577 57.1982 57.9996C57.1982 58.4414 57.5564 58.7995 57.9982 58.7995H58.7982C59.24 58.7995 59.5981 58.4414 59.5981 57.9996C59.5981 57.5577 59.24 57.1996 58.7982 57.1996Z" fill="#000AFF"></path> <path fill-rule="evenodd" clip-rule="evenodd" d="M58.7982 66.7991H57.9982C57.5564 66.7991 57.1982 67.1572 57.1982 67.599C57.1982 68.0409 57.5564 68.399 57.9982 68.399H58.7982C59.24 68.399 59.5981 68.0409 59.5981 67.599C59.5981 67.1572 59.24 66.7991 58.7982 66.7991Z" fill="#000AFF"></path> <path fill-rule="evenodd" clip-rule="evenodd" d="M67.5979 57.1996H61.9982C61.5564 57.1996 61.1982 57.5577 61.1982 57.9996C61.1982 58.4414 61.5564 58.7995 61.9982 58.7995H67.5979C68.0397 58.7995 68.3978 58.4414 68.3978 57.9996C68.3978 57.5577 68.0397 57.1996 67.5979 57.1996Z" fill="#000AFF"></path> <path fill-rule="evenodd" clip-rule="evenodd" d="M67.5979 61.9993H61.9982C61.5564 61.9993 61.1982 62.3574 61.1982 62.7992C61.1982 63.2411 61.5564 63.5992 61.9982 63.5992H67.5979C68.0397 63.5992 68.3978 63.2411 68.3978 62.7992C68.3978 62.3575 68.0397 61.9993 67.5979 61.9993Z" fill="#000AFF"></path> <path fill-rule="evenodd" clip-rule="evenodd" d="M67.5979 66.7991H61.9982C61.5564 66.7991 61.1982 67.1572 61.1982 67.599C61.1982 68.0409 61.5564 68.399 61.9982 68.399H67.5979C68.0397 68.399 68.3978 68.0409 68.3978 67.599C68.3978 67.1572 68.0397 66.7991 67.5979 66.7991Z" fill="#000AFF"></path> </svg> 