<?xml version="1.0" encoding="UTF-8"?> <svg xmlns="http://www.w3.org/2000/svg" width="100" height="100" viewBox="0 0 100 100" fill="none"> <path d="M52.2852 76H47.7148C46.0348 76 44.668 74.6332 44.668 72.9531C44.668 71.536 45.6404 70.3418 46.9531 70.0026V68.7386C46.9531 68.4496 46.7432 68.1993 46.4538 68.143C44.0211 67.6702 41.7431 66.7267 39.683 65.3387C39.4364 65.1723 39.109 65.2001 38.9045 65.4045L38.0028 66.3061C38.6317 67.4007 38.5523 68.811 37.7254 69.7983C37.1755 70.4547 36.3719 70.8526 35.5204 70.8901C34.669 70.9268 33.8341 70.6035 33.2312 70.0007L29.9994 66.769C29.4239 66.1935 29.1071 65.4285 29.1071 64.6145C29.1071 63.8006 29.4239 63.0354 29.9994 62.46C30.575 61.8845 31.34 61.5677 32.1539 61.5677C32.7074 61.5677 33.2383 61.7141 33.7023 61.9888L34.5956 61.0955C34.8001 60.8912 34.8277 60.5637 34.6614 60.317C33.2734 58.2569 32.3299 55.9789 31.8571 53.5463C31.8008 53.2568 31.5504 53.0469 31.2615 53.0469H29.9986C29.8607 53.5869 29.5753 54.0794 29.1626 54.4777C28.5622 55.0572 27.7724 55.3583 26.9367 55.3302C25.2899 55.2715 24 53.9126 24 52.2365V47.7148C24 46.8817 24.3299 46.1039 24.9289 45.5245C25.5279 44.9454 26.3184 44.6419 27.1505 44.6698C28.4978 44.7147 29.6365 45.68 29.9845 46.9531H31.2614C31.5504 46.9531 31.8008 46.7432 31.857 46.4538C32.3298 44.0211 33.2733 41.7431 34.6613 39.683C34.8276 39.4363 34.7999 39.1088 34.5955 38.9045L33.7022 38.0112C33.2382 38.2859 32.7073 38.4323 32.1538 38.4323C31.3399 38.4323 30.5749 38.1155 29.9993 37.54C28.8113 36.352 28.8113 34.419 29.9993 33.2309L33.231 29.9993C34.419 28.8112 36.3519 28.8114 37.54 29.9993C38.1155 30.5749 38.4323 31.3399 38.4323 32.1538C38.4323 32.7072 38.2859 33.2381 38.0112 33.7022L38.9045 34.5955C39.109 34.8001 39.4363 34.8276 39.6829 34.6613C41.7431 33.2733 44.0211 32.3298 46.4537 31.857C46.7432 31.8007 46.9531 31.5503 46.9531 31.2614V29.9974C45.6404 29.6582 44.668 28.464 44.668 27.0469C44.668 25.3668 46.0348 24 47.7148 24H52.2852C53.9652 24 55.332 25.3668 55.332 27.0469C55.332 28.464 54.3596 29.6582 53.0469 29.9974V31.2614C53.0469 31.5504 53.2568 31.8008 53.5462 31.857C55.9789 32.3298 58.2569 33.2733 60.317 34.6613C60.5636 34.8276 60.8911 34.8 61.0955 34.5955L61.9897 33.7015C61.3012 32.5332 61.4581 31.0012 62.46 29.9993C63.6479 28.8114 65.5809 28.8112 66.769 29.9993L70.0007 33.2309C71.1887 34.4189 71.1887 36.3519 70.0007 37.54C69.4251 38.1155 68.6601 38.4323 67.8462 38.4323C67.2928 38.4323 66.7619 38.2859 66.2978 38.0112L65.4045 38.9045C65.2 39.1088 65.1724 39.4363 65.3387 39.683C66.7267 41.7431 67.6702 44.0211 68.143 46.4537C68.1993 46.7432 68.4497 46.9531 68.7386 46.9531H70.0134C70.3428 45.7343 71.3963 44.7933 72.6792 44.6801H72.6793C73.5324 44.604 74.3818 44.8917 75.0104 45.4673C75.6393 46.0431 76 46.8623 76 47.7148V52.2852C76 53.1377 75.6393 53.9569 75.0104 54.5327C74.3818 55.1083 73.5314 55.3951 72.6793 55.3199C71.3963 55.2067 70.3428 54.2657 70.0134 53.0469H68.7386C68.4496 53.0469 68.1993 53.2568 68.143 53.5462C67.6702 55.9789 66.7267 58.2569 65.3387 60.317C65.1724 60.5637 65.2001 60.8912 65.4045 61.0955L66.2978 61.9888C66.7619 61.7141 67.2928 61.5677 67.8462 61.5677C68.6601 61.5677 69.4251 61.8845 70.0007 62.46C70.5762 63.0354 70.893 63.8006 70.893 64.6145C70.893 65.4285 70.5762 66.1935 70.0006 66.769L66.769 70.0007C66.1661 70.6036 65.3322 70.9278 64.4797 70.8901C63.6282 70.8526 62.8246 70.4547 62.2747 69.7984C61.4478 68.811 61.3682 67.4008 61.9973 66.3061L61.0956 65.4045C60.8912 65.2 60.5638 65.1723 60.3172 65.3387C58.257 66.7267 55.979 67.6702 53.5464 68.143C53.2569 68.1993 53.047 68.4497 53.047 68.7386V70.0026C54.3597 70.3418 55.3321 71.536 55.3321 72.9531C55.332 74.6332 53.9652 76 52.2852 76ZM39.3319 63.2001C39.847 63.2001 40.3657 63.3493 40.8181 63.6542C42.6509 64.8891 44.6775 65.7286 46.8414 66.149C48.083 66.3903 48.9844 67.4793 48.9844 68.7386V70.668C48.9844 71.368 48.4149 71.9375 47.7148 71.9375C47.1548 71.9375 46.6992 72.3931 46.6992 72.9531C46.6992 73.5131 47.1548 73.9688 47.7148 73.9688H52.2852C52.8452 73.9688 53.3008 73.5131 53.3008 72.9531C53.3008 72.3931 52.8452 71.9375 52.2852 71.9375C51.5851 71.9375 51.0156 71.368 51.0156 70.668V68.7386C51.0156 67.4794 51.917 66.3903 53.1588 66.149C55.3226 65.7285 57.3492 64.8891 59.1821 63.6542C60.2329 62.9461 61.6418 63.078 62.5319 63.9682L63.9289 65.3652C64.4059 65.8422 64.4059 66.6186 63.9289 67.0956C63.5418 67.4827 63.4993 68.0968 63.8319 68.4941C64.0195 68.7179 64.2813 68.8482 64.5691 68.8609C64.8589 68.8729 65.1289 68.7683 65.3328 68.5644L68.5644 65.3327C68.7564 65.1408 68.8619 64.8859 68.8619 64.6146C68.8619 64.3433 68.7563 64.0882 68.5644 63.8965C68.1684 63.5005 67.524 63.5007 67.1281 63.8965L67.0956 63.929C66.6187 64.406 65.8423 64.4061 65.3652 63.929L63.9682 62.532C63.0781 61.6419 62.9461 60.233 63.6542 59.1822C64.8891 57.3493 65.7286 55.3227 66.149 53.1588C66.3903 51.917 67.4793 51.0156 68.7386 51.0156H70.7138C71.3885 51.0156 71.9375 51.5646 71.9375 52.2394C71.9375 52.7867 72.3417 53.251 72.8579 53.2966C73.1485 53.322 73.4261 53.2292 73.6385 53.0346C73.8514 52.8397 73.9686 52.5735 73.9686 52.2852V47.7148C73.9686 47.4265 73.8514 47.1603 73.6385 46.9654C73.4259 46.7706 73.1472 46.6775 72.8579 46.7034C72.3417 46.749 71.9375 47.2133 71.9375 47.7606C71.9375 48.4353 71.3886 48.9844 70.7138 48.9844H68.7386C67.4794 48.9844 66.3903 48.083 66.149 46.8412C65.7285 44.6774 64.8891 42.6508 63.6542 40.8179C62.946 39.767 63.0781 38.3581 63.9682 37.4681L65.3327 36.1036C65.8278 35.6086 66.6331 35.6087 67.1282 36.1036C67.5241 36.4995 68.1685 36.4997 68.5645 36.1036C68.9605 35.7076 68.9605 35.0633 68.5645 34.6672L65.3328 31.4356C64.9371 31.0398 64.2927 31.0394 63.8965 31.4356C63.5005 31.8315 63.5005 32.4759 63.8965 32.8719C64.3915 33.3669 64.3915 34.1724 63.8965 34.6674L62.532 36.0319C61.6418 36.922 60.233 37.054 59.1821 36.3459C57.3493 35.111 55.3227 34.2715 53.1588 33.8511C51.917 33.6097 51.0156 32.5207 51.0156 31.2614V29.332C51.0156 28.632 51.5851 28.0625 52.2852 28.0625C52.8452 28.0625 53.3008 27.6069 53.3008 27.0469C53.3008 26.4869 52.8452 26.0312 52.2852 26.0312H47.7148C47.1548 26.0312 46.6992 26.4869 46.6992 27.0469C46.6992 27.6069 47.1548 28.0625 47.7148 28.0625C48.4149 28.0625 48.9844 28.632 48.9844 29.332V31.2614C48.9844 32.5206 48.083 33.6097 46.8412 33.851C44.6774 34.2715 42.6508 35.1109 40.8179 36.3458C39.7671 37.0539 38.3582 36.922 37.4681 36.0318L36.1036 34.6673C35.8639 34.4275 35.7318 34.1087 35.7318 33.7696C35.7318 33.4303 35.864 33.1114 36.104 32.8716C36.4997 32.4759 36.4997 31.8315 36.1036 31.4355C35.7076 31.0393 35.0632 31.0395 34.6673 31.4355L31.4356 34.6671C31.0396 35.0631 31.0396 35.7074 31.4356 36.1035C31.6274 36.2954 31.8825 36.401 32.1537 36.401C32.425 36.401 32.68 36.2955 32.8718 36.1036C33.3667 35.6085 34.1722 35.6086 34.6673 36.1035L36.0318 37.468C36.9219 38.3581 37.0539 39.767 36.3458 40.8178C35.1109 42.6507 34.2714 44.6773 33.851 46.8412C33.6097 48.083 32.5207 48.9844 31.2614 48.9844H29.2788C28.6081 48.9844 28.0625 48.4388 28.0625 47.7681C28.0625 47.1971 27.6229 46.7178 27.0827 46.6998C26.8047 46.6896 26.5405 46.7914 26.341 46.9847C26.1412 47.1778 26.0312 47.4372 26.0312 47.7148V52.2365C26.0312 52.8038 26.4698 53.281 27.0089 53.3002C27.2887 53.3104 27.5519 53.2093 27.7519 53.0162C27.9522 52.8229 28.0625 52.5632 28.0625 52.2852C28.0625 51.5851 28.632 51.0156 29.332 51.0156H31.2614C32.5206 51.0156 33.6097 51.917 33.851 53.1588C34.2715 55.3226 35.1109 57.3492 36.3458 59.1821C37.054 60.233 36.9219 61.6419 36.0318 62.5319L34.6348 63.9289C34.1578 64.406 33.3814 64.4059 32.9044 63.9289L32.8719 63.8964C32.68 63.7044 32.4251 63.5989 32.1538 63.5989C31.8826 63.5989 31.6274 63.7045 31.4357 63.8964C31.2438 64.0882 31.1382 64.3432 31.1382 64.6145C31.1382 64.8858 31.2437 65.1408 31.4356 65.3326L34.6674 68.5643C34.8714 68.7681 35.1431 68.8736 35.431 68.8608C35.7188 68.8481 35.9806 68.7178 36.1682 68.4939C36.5008 68.0968 36.4583 67.4826 36.0713 67.0955C35.5942 66.6185 35.5942 65.8421 36.0712 65.3651L37.4682 63.9681C37.9751 63.4612 38.6504 63.2001 39.3319 63.2001Z" fill="#000AFF"></path> <path d="M46.0769 45.7219C43.7248 45.7219 41.8113 43.8084 41.8113 41.4563C41.8113 39.1042 43.7248 37.1907 46.0769 37.1907C48.429 37.1907 50.3425 39.1042 50.3425 41.4563C50.3425 43.8084 48.429 45.7219 46.0769 45.7219ZM46.0769 39.2219C44.8448 39.2219 43.8425 40.2242 43.8425 41.4563C43.8425 42.6884 44.8448 43.6907 46.0769 43.6907C47.309 43.6907 48.3113 42.6884 48.3113 41.4563C48.3113 40.2242 47.309 39.2219 46.0769 39.2219Z" fill="#000AFF"></path> <path d="M43.1954 60.1365C41.1607 60.1365 39.5054 58.4811 39.5054 56.4464C39.5054 54.4117 41.1607 52.7562 43.1954 52.7562C45.2301 52.7562 46.8855 54.4117 46.8855 56.4464C46.8855 58.4811 45.2301 60.1365 43.1954 60.1365ZM43.1954 54.7875C42.2808 54.7875 41.5366 55.5316 41.5366 56.4464C41.5366 57.3611 42.2808 58.1052 43.1954 58.1052C44.1101 58.1052 44.8543 57.3611 44.8543 56.4464C44.8543 55.5316 44.1101 54.7875 43.1954 54.7875Z" fill="#000AFF"></path> <path d="M57.0924 59.1259C53.9094 59.1259 51.2312 56.7448 50.8627 53.5872C50.7976 53.0301 51.1966 52.5258 51.7537 52.4606C52.311 52.3961 52.8151 52.7945 52.8802 53.3518C53.1292 55.4856 54.9401 57.0946 57.0924 57.0946C59.4309 57.0946 61.3336 55.1921 61.3336 52.8535C61.3336 50.6876 59.713 48.8753 57.5641 48.6381C57.0066 48.5767 56.6044 48.0748 56.666 47.5173C56.7275 46.9597 57.2299 46.5588 57.7868 46.6192C60.9668 46.9701 63.3648 49.6503 63.3648 52.8535C63.3648 56.3121 60.551 59.1259 57.0924 59.1259Z" fill="#000AFF"></path> <path d="M55.7891 42.4722C55.522 42.4722 55.2599 42.3635 55.071 42.1746C54.8821 41.9857 54.7734 41.7237 54.7734 41.4565C54.7734 41.1884 54.882 40.9274 55.071 40.7385C55.2599 40.5497 55.522 40.4409 55.7891 40.4409C56.0562 40.4409 56.3182 40.5496 56.507 40.7385C56.6959 40.9274 56.8047 41.1894 56.8047 41.4565C56.8047 41.7237 56.696 41.9857 56.507 42.1746C56.3182 42.3635 56.0562 42.4722 55.7891 42.4722Z" fill="#000AFF"></path> <path d="M50 63.1016C49.7329 63.1016 49.4709 62.9929 49.282 62.8039C49.093 62.6151 48.9844 62.353 48.9844 62.0859C48.9844 61.8188 49.0929 61.5568 49.282 61.3679C49.4709 61.179 49.7319 61.0703 50 61.0703C50.2671 61.0703 50.5291 61.1789 50.7179 61.3679C50.9069 61.5568 51.0156 61.8188 51.0156 62.0859C51.0156 62.353 50.907 62.6151 50.7179 62.8039C50.5291 62.9929 50.2671 63.1016 50 63.1016Z" fill="#000AFF"></path> <path d="M38.5916 51.0288C38.3234 51.0288 38.0624 50.9201 37.8735 50.7312C37.6836 50.5423 37.5759 50.2803 37.5759 50.0132C37.5759 49.7451 37.6836 49.484 37.8735 49.2951C38.0615 49.1052 38.3235 48.9976 38.5916 48.9976C38.8587 48.9976 39.1207 49.1052 39.3096 49.2951C39.4984 49.484 39.6072 49.7461 39.6072 50.0132C39.6072 50.2803 39.4985 50.5413 39.3096 50.7312C39.1207 50.9201 38.8587 51.0288 38.5916 51.0288Z" fill="#000AFF"></path> <path d="M53.3638 50.1645C53.0967 50.1645 52.8346 50.0559 52.6457 49.8669C52.4568 49.6781 52.3481 49.416 52.3481 49.1489C52.3481 48.8807 52.4567 48.6198 52.6457 48.4299C52.8346 48.241 53.0967 48.1333 53.3638 48.1333C53.6309 48.1333 53.8929 48.241 54.0817 48.4299C54.2706 48.6198 54.3794 48.8808 54.3794 49.1489C54.3794 49.416 54.2707 49.6769 54.0817 49.8669C53.8929 50.0559 53.6309 50.1645 53.3638 50.1645Z" fill="#000AFF"></path> </svg> 