<?xml version="1.0" encoding="UTF-8"?> <svg xmlns="http://www.w3.org/2000/svg" width="100" height="100" viewBox="0 0 100 100" fill="none"> <path d="M79.466 32.1213L50.4075 18.0931C50.1499 17.9688 49.8499 17.9688 49.5924 18.0931L20.5338 32.1213C20.2098 32.2777 20.0039 32.6058 20.0039 32.9656V67.0342C20.0039 67.3939 20.2098 67.7221 20.5338 67.8784L49.5923 81.9067C49.721 81.9688 49.8605 81.9999 49.9999 81.9999C50.1393 81.9999 50.2787 81.9688 50.4075 81.9067L79.466 67.8784C79.79 67.7221 79.9959 67.3939 79.9959 67.0342V32.9657C79.9959 32.6057 79.7899 32.2778 79.466 32.1213ZM49.9999 19.9784L76.902 32.9656L69.1037 36.7303C69.0543 36.6927 69.0022 36.6579 68.9449 36.6303L42.2255 23.7316L49.9999 19.9784ZM40.1083 24.7916L66.9713 37.7598L61.4694 40.4159L34.6175 27.4529L40.1083 24.7916ZM67.5998 39.5383V49.3566L62.4607 51.8376V42.0193L67.5998 39.5383ZM78.1209 66.4459L50.9374 79.5687V47.5822L57.4215 44.4519C57.8878 44.2268 58.0833 43.6664 57.8582 43.2001C57.633 42.7339 57.0727 42.5382 56.6063 42.7634L49.9999 45.9528L47.4004 44.6978C46.934 44.4724 46.3737 44.6682 46.1485 45.1344C45.9234 45.6007 46.1189 46.1612 46.5852 46.3863L49.0624 47.5822V79.5687L21.8789 66.4457V34.4592L42.5789 44.4523C42.7103 44.5158 42.8492 44.5458 42.9858 44.5458C43.3343 44.5458 43.669 44.3506 43.8307 44.0157C44.0558 43.5494 43.8603 42.9889 43.394 42.7638L23.0978 32.9656L32.4109 28.4696L60.5727 42.0649C60.5768 42.0707 60.5814 42.0758 60.5857 42.0814V53.3313C60.5857 53.6539 60.7515 53.9538 61.0248 54.1254C61.1765 54.2207 61.3497 54.2688 61.5233 54.2688C61.6623 54.2688 61.8017 54.2379 61.9308 54.1756L68.9449 50.7894C69.2689 50.6331 69.4748 50.3051 69.4748 49.9452V38.6333L78.1209 34.4593V66.4459Z" fill="#000AFF"></path> <path d="M29.6158 62.8099L25.3514 60.7513C24.8849 60.5259 24.3247 60.7217 24.0996 61.1879C23.8744 61.6542 24.0699 62.2147 24.5362 62.4398L28.8006 64.4984C28.9319 64.5619 29.0708 64.5919 29.2074 64.5919C29.5559 64.5919 29.8907 64.3967 30.0523 64.0618C30.2776 63.5954 30.0821 63.0352 29.6158 62.8099Z" fill="#000AFF"></path> <path d="M33.5404 60.2553L25.3572 56.3048C24.8909 56.0796 24.3305 56.2751 24.1054 56.7415C23.8804 57.2078 24.0759 57.7683 24.5421 57.9934L32.7252 61.9439C32.8566 62.0073 32.9955 62.0374 33.1321 62.0374C33.4806 62.0374 33.8154 61.8421 33.977 61.5073C34.2021 61.0408 34.0066 60.4803 33.5404 60.2553Z" fill="#000AFF"></path> </svg> 